<svg width="30" height="30" viewBox="0 0 30 30" fill="none" xmlns="http://www.w3.org/2000/svg">
<path d="M8.75 26.25C7.36929 26.25 6.25 25.1307 6.25 23.75V6.25C6.25 4.86929 7.36929 3.75 8.75 3.75H10C11.3807 3.75 12.5 4.86929 12.5 6.25V23.75C12.5 25.1307 11.3807 26.25 10 26.25H8.75Z" fill="white"/>
<path d="M17.5 6.25C17.5 4.86929 18.6193 3.75 20 3.75H21.25C22.6307 3.75 23.75 4.86929 23.75 6.25V23.75C23.75 25.1307 22.6307 26.25 21.25 26.25H20C18.6193 26.25 17.5 25.1307 17.5 23.75V6.25Z" fill="white"/>
</svg>
