<svg width="30" height="30" viewBox="0 0 30 30" fill="none" xmlns="http://www.w3.org/2000/svg">
<path d="M25 4.375C24.3096 4.375 23.75 4.93465 23.75 5.625V24.375C23.75 25.0654 24.3096 25.625 25 25.625C25.6904 25.625 26.25 25.0654 26.25 24.375V5.625C26.25 4.93465 25.6904 4.375 25 4.375Z" fill="white"/>
<path d="M3.75 24.0029C3.75 24.983 4.82651 25.5819 5.6592 25.065L20.1639 16.062C20.9516 15.5731 20.9516 14.4269 20.1639 13.938L5.6592 4.93504C5.64619 4.92696 5.63312 4.91915 5.62 4.91162C5.52812 4.85889 5.43358 4.81936 5.33809 4.79209C4.5742 4.57386 3.75 5.13954 3.75 5.99709V24.0029Z" fill="white"/>
</svg>
